<mxfile host="app.diagrams.net" modified="2024-07-08T22:20:13.037Z" agent="Mozilla/5.0 (Macintosh; Intel Mac OS X 10_15_7) AppleWebKit/537.36 (KHTML, like Gecko) Chrome/126.0.0.0 Safari/537.36" etag="no_sKVGuCTb1KBwrtcp0" version="24.6.4" type="device">
  <diagram name="Page-1" id="FjhnlzYEhdQJ7LTU5m2R">
    <mxGraphModel dx="954" dy="581" grid="1" gridSize="10" guides="1" tooltips="1" connect="1" arrows="1" fold="1" page="1" pageScale="1" pageWidth="850" pageHeight="1100" math="0" shadow="0">
      <root>
        <mxCell id="0" />
        <mxCell id="1" parent="0" />
        <mxCell id="6V9OZ5uQbkUSQRL8xPAm-1" value="Keyboard Window" style="swimlane;fontStyle=1;align=center;verticalAlign=top;childLayout=stackLayout;horizontal=1;startSize=26;horizontalStack=0;resizeParent=1;resizeParentMax=0;resizeLast=0;collapsible=1;marginBottom=0;whiteSpace=wrap;html=1;" vertex="1" parent="1">
          <mxGeometry x="340" y="261" width="160" height="86" as="geometry" />
        </mxCell>
        <mxCell id="6V9OZ5uQbkUSQRL8xPAm-2" value="+ Keyboard" style="text;strokeColor=none;fillColor=none;align=left;verticalAlign=top;spacingLeft=4;spacingRight=4;overflow=hidden;rotatable=0;points=[[0,0.5],[1,0.5]];portConstraint=eastwest;whiteSpace=wrap;html=1;" vertex="1" parent="6V9OZ5uQbkUSQRL8xPAm-1">
          <mxGeometry y="26" width="160" height="26" as="geometry" />
        </mxCell>
        <mxCell id="6V9OZ5uQbkUSQRL8xPAm-3" value="" style="line;strokeWidth=1;fillColor=none;align=left;verticalAlign=middle;spacingTop=-1;spacingLeft=3;spacingRight=3;rotatable=0;labelPosition=right;points=[];portConstraint=eastwest;strokeColor=inherit;" vertex="1" parent="6V9OZ5uQbkUSQRL8xPAm-1">
          <mxGeometry y="52" width="160" height="8" as="geometry" />
        </mxCell>
        <mxCell id="6V9OZ5uQbkUSQRL8xPAm-4" value="+ getKeys() -&amp;gt; List[Key]" style="text;strokeColor=none;fillColor=none;align=left;verticalAlign=top;spacingLeft=4;spacingRight=4;overflow=hidden;rotatable=0;points=[[0,0.5],[1,0.5]];portConstraint=eastwest;whiteSpace=wrap;html=1;" vertex="1" parent="6V9OZ5uQbkUSQRL8xPAm-1">
          <mxGeometry y="60" width="160" height="26" as="geometry" />
        </mxCell>
        <mxCell id="6V9OZ5uQbkUSQRL8xPAm-15" style="edgeStyle=orthogonalEdgeStyle;rounded=0;orthogonalLoop=1;jettySize=auto;html=1;exitX=0;exitY=0.25;exitDx=0;exitDy=0;entryX=1;entryY=0.5;entryDx=0;entryDy=0;endArrow=diamondThin;endFill=0;" edge="1" parent="1" source="6V9OZ5uQbkUSQRL8xPAm-10" target="6V9OZ5uQbkUSQRL8xPAm-2">
          <mxGeometry relative="1" as="geometry" />
        </mxCell>
        <mxCell id="6V9OZ5uQbkUSQRL8xPAm-10" value="Keyboard" style="swimlane;fontStyle=1;align=center;verticalAlign=top;childLayout=stackLayout;horizontal=1;startSize=26;horizontalStack=0;resizeParent=1;resizeParentMax=0;resizeLast=0;collapsible=1;marginBottom=0;whiteSpace=wrap;html=1;" vertex="1" parent="1">
          <mxGeometry x="550" y="261" width="160" height="86" as="geometry" />
        </mxCell>
        <mxCell id="6V9OZ5uQbkUSQRL8xPAm-11" value="+ List[Key]" style="text;strokeColor=none;fillColor=none;align=left;verticalAlign=top;spacingLeft=4;spacingRight=4;overflow=hidden;rotatable=0;points=[[0,0.5],[1,0.5]];portConstraint=eastwest;whiteSpace=wrap;html=1;" vertex="1" parent="6V9OZ5uQbkUSQRL8xPAm-10">
          <mxGeometry y="26" width="160" height="26" as="geometry" />
        </mxCell>
        <mxCell id="6V9OZ5uQbkUSQRL8xPAm-12" value="" style="line;strokeWidth=1;fillColor=none;align=left;verticalAlign=middle;spacingTop=-1;spacingLeft=3;spacingRight=3;rotatable=0;labelPosition=right;points=[];portConstraint=eastwest;strokeColor=inherit;" vertex="1" parent="6V9OZ5uQbkUSQRL8xPAm-10">
          <mxGeometry y="52" width="160" height="8" as="geometry" />
        </mxCell>
        <mxCell id="6V9OZ5uQbkUSQRL8xPAm-13" value="+ getKeys() -&amp;gt; List[Key]" style="text;strokeColor=none;fillColor=none;align=left;verticalAlign=top;spacingLeft=4;spacingRight=4;overflow=hidden;rotatable=0;points=[[0,0.5],[1,0.5]];portConstraint=eastwest;whiteSpace=wrap;html=1;" vertex="1" parent="6V9OZ5uQbkUSQRL8xPAm-10">
          <mxGeometry y="60" width="160" height="26" as="geometry" />
        </mxCell>
        <mxCell id="6V9OZ5uQbkUSQRL8xPAm-20" style="edgeStyle=orthogonalEdgeStyle;rounded=0;orthogonalLoop=1;jettySize=auto;html=1;exitX=0;exitY=0.25;exitDx=0;exitDy=0;entryX=1;entryY=0.5;entryDx=0;entryDy=0;strokeColor=default;align=center;verticalAlign=middle;fontFamily=Helvetica;fontSize=11;fontColor=default;labelBackgroundColor=default;endArrow=diamondThin;endFill=0;" edge="1" parent="1" source="6V9OZ5uQbkUSQRL8xPAm-16" target="6V9OZ5uQbkUSQRL8xPAm-11">
          <mxGeometry relative="1" as="geometry" />
        </mxCell>
        <mxCell id="6V9OZ5uQbkUSQRL8xPAm-16" value="Key" style="swimlane;fontStyle=1;align=center;verticalAlign=top;childLayout=stackLayout;horizontal=1;startSize=26;horizontalStack=0;resizeParent=1;resizeParentMax=0;resizeLast=0;collapsible=1;marginBottom=0;whiteSpace=wrap;html=1;" vertex="1" parent="1">
          <mxGeometry x="760" y="261" width="160" height="139" as="geometry" />
        </mxCell>
        <mxCell id="6V9OZ5uQbkUSQRL8xPAm-17" value="+ Type" style="text;strokeColor=none;fillColor=none;align=left;verticalAlign=top;spacingLeft=4;spacingRight=4;overflow=hidden;rotatable=0;points=[[0,0.5],[1,0.5]];portConstraint=eastwest;whiteSpace=wrap;html=1;" vertex="1" parent="6V9OZ5uQbkUSQRL8xPAm-16">
          <mxGeometry y="26" width="160" height="26" as="geometry" />
        </mxCell>
        <mxCell id="6V9OZ5uQbkUSQRL8xPAm-22" value="+ Note" style="text;strokeColor=none;fillColor=none;align=left;verticalAlign=top;spacingLeft=4;spacingRight=4;overflow=hidden;rotatable=0;points=[[0,0.5],[1,0.5]];portConstraint=eastwest;whiteSpace=wrap;html=1;" vertex="1" parent="6V9OZ5uQbkUSQRL8xPAm-16">
          <mxGeometry y="52" width="160" height="26" as="geometry" />
        </mxCell>
        <mxCell id="6V9OZ5uQbkUSQRL8xPAm-21" value="+ IsPressed" style="text;strokeColor=none;fillColor=none;align=left;verticalAlign=top;spacingLeft=4;spacingRight=4;overflow=hidden;rotatable=0;points=[[0,0.5],[1,0.5]];portConstraint=eastwest;whiteSpace=wrap;html=1;" vertex="1" parent="6V9OZ5uQbkUSQRL8xPAm-16">
          <mxGeometry y="78" width="160" height="27" as="geometry" />
        </mxCell>
        <mxCell id="6V9OZ5uQbkUSQRL8xPAm-18" value="" style="line;strokeWidth=1;fillColor=none;align=left;verticalAlign=middle;spacingTop=-1;spacingLeft=3;spacingRight=3;rotatable=0;labelPosition=right;points=[];portConstraint=eastwest;strokeColor=inherit;" vertex="1" parent="6V9OZ5uQbkUSQRL8xPAm-16">
          <mxGeometry y="105" width="160" height="8" as="geometry" />
        </mxCell>
        <mxCell id="6V9OZ5uQbkUSQRL8xPAm-19" value="+ getKeys() -&amp;gt; List[Key]" style="text;strokeColor=none;fillColor=none;align=left;verticalAlign=top;spacingLeft=4;spacingRight=4;overflow=hidden;rotatable=0;points=[[0,0.5],[1,0.5]];portConstraint=eastwest;whiteSpace=wrap;html=1;" vertex="1" parent="6V9OZ5uQbkUSQRL8xPAm-16">
          <mxGeometry y="113" width="160" height="26" as="geometry" />
        </mxCell>
        <mxCell id="6V9OZ5uQbkUSQRL8xPAm-24" value="Note" style="swimlane;fontStyle=1;align=center;verticalAlign=top;childLayout=stackLayout;horizontal=1;startSize=26;horizontalStack=0;resizeParent=1;resizeParentMax=0;resizeLast=0;collapsible=1;marginBottom=0;whiteSpace=wrap;html=1;" vertex="1" parent="1">
          <mxGeometry x="970" y="261" width="160" height="139" as="geometry" />
        </mxCell>
        <mxCell id="6V9OZ5uQbkUSQRL8xPAm-25" value="+ Type" style="text;strokeColor=none;fillColor=none;align=left;verticalAlign=top;spacingLeft=4;spacingRight=4;overflow=hidden;rotatable=0;points=[[0,0.5],[1,0.5]];portConstraint=eastwest;whiteSpace=wrap;html=1;" vertex="1" parent="6V9OZ5uQbkUSQRL8xPAm-24">
          <mxGeometry y="26" width="160" height="26" as="geometry" />
        </mxCell>
        <mxCell id="6V9OZ5uQbkUSQRL8xPAm-26" value="+ Note" style="text;strokeColor=none;fillColor=none;align=left;verticalAlign=top;spacingLeft=4;spacingRight=4;overflow=hidden;rotatable=0;points=[[0,0.5],[1,0.5]];portConstraint=eastwest;whiteSpace=wrap;html=1;" vertex="1" parent="6V9OZ5uQbkUSQRL8xPAm-24">
          <mxGeometry y="52" width="160" height="26" as="geometry" />
        </mxCell>
        <mxCell id="6V9OZ5uQbkUSQRL8xPAm-27" value="+ IsPressed" style="text;strokeColor=none;fillColor=none;align=left;verticalAlign=top;spacingLeft=4;spacingRight=4;overflow=hidden;rotatable=0;points=[[0,0.5],[1,0.5]];portConstraint=eastwest;whiteSpace=wrap;html=1;" vertex="1" parent="6V9OZ5uQbkUSQRL8xPAm-24">
          <mxGeometry y="78" width="160" height="27" as="geometry" />
        </mxCell>
        <mxCell id="6V9OZ5uQbkUSQRL8xPAm-28" value="" style="line;strokeWidth=1;fillColor=none;align=left;verticalAlign=middle;spacingTop=-1;spacingLeft=3;spacingRight=3;rotatable=0;labelPosition=right;points=[];portConstraint=eastwest;strokeColor=inherit;" vertex="1" parent="6V9OZ5uQbkUSQRL8xPAm-24">
          <mxGeometry y="105" width="160" height="8" as="geometry" />
        </mxCell>
        <mxCell id="6V9OZ5uQbkUSQRL8xPAm-29" value="+ getKeys() -&amp;gt; List[Key]" style="text;strokeColor=none;fillColor=none;align=left;verticalAlign=top;spacingLeft=4;spacingRight=4;overflow=hidden;rotatable=0;points=[[0,0.5],[1,0.5]];portConstraint=eastwest;whiteSpace=wrap;html=1;" vertex="1" parent="6V9OZ5uQbkUSQRL8xPAm-24">
          <mxGeometry y="113" width="160" height="26" as="geometry" />
        </mxCell>
      </root>
    </mxGraphModel>
  </diagram>
</mxfile>
